<svg viewBox="0 0 16 16" width="16px" height="16px"><path d="M 15.118355,15.999999 C 15.608848,15.999999 16,15.602639 16,15.118354 L 16,0.8816446 C 16,0.3911526 15.602639,-4e-7 15.118355,-4e-7 l -14.23670965,0 C 0.3973613,-4e-7 4.0000001e-8,0.3973596 4.0000001e-8,0.8816446 l 0,14.2367094 c 0,0.490492 0.397361429999999,0.881645 0.881645309999999,0.881645 l 14.23670965,0 z" style="fill:#157dc3" /><path d="m 11.039193,15.999999 0,-6.1963525 2.079938,0 0.310436,-2.4152109 -2.390376,0 0,-1.539775 c 0,-0.701591 0.192472,-1.173457 1.198293,-1.173457 l 1.279006,0 0,-2.166861 c -0.223516,-0.03105 -0.980985,-0.09313 -1.862631,-0.09313 -1.844004,0 -3.1043848,1.123787 -3.1043848,3.191307 l 0,1.781917 -2.0861467,0 0,2.4152109 2.0861467,0 0,6.1963525 2.4897168,0 z" style="fill:#ffffff" /></svg>